<mxfile host="app.diagrams.net" agent="Mozilla/5.0 (Windows NT 10.0; Win64; x64; rv:134.0) Gecko/20100101 Firefox/134.0" version="26.0.8">
  <diagram name="Page-1" id="AMzdDWD9s2kKg2ityaF7">
    <mxGraphModel dx="2243" dy="1229" grid="0" gridSize="10" guides="1" tooltips="1" connect="1" arrows="1" fold="1" page="0" pageScale="1" pageWidth="850" pageHeight="1100" math="0" shadow="0">
      <root>
        <mxCell id="0" />
        <mxCell id="1" parent="0" />
        <mxCell id="kiffX70MgYj1E5UU6OqD-1" value="" style="shape=cylinder3;whiteSpace=wrap;html=1;boundedLbl=1;backgroundOutline=1;size=15;" vertex="1" parent="1">
          <mxGeometry x="319" y="-43" width="512" height="501" as="geometry" />
        </mxCell>
        <mxCell id="kiffX70MgYj1E5UU6OqD-51" value="" style="edgeStyle=none;curved=1;rounded=0;orthogonalLoop=1;jettySize=auto;html=1;fontSize=12;startSize=8;endSize=8;" edge="1" parent="1" source="kiffX70MgYj1E5UU6OqD-2" target="kiffX70MgYj1E5UU6OqD-34">
          <mxGeometry relative="1" as="geometry" />
        </mxCell>
        <mxCell id="kiffX70MgYj1E5UU6OqD-2" value="Once view is created it is periodically refreshed (handled by DB , we dont need to do anything apart from defining a view." style="ellipse;whiteSpace=wrap;html=1;" vertex="1" parent="1">
          <mxGeometry x="586" y="120" width="291" height="100" as="geometry" />
        </mxCell>
        <mxCell id="kiffX70MgYj1E5UU6OqD-3" value="" style="shape=table;startSize=0;container=1;collapsible=0;childLayout=tableLayout;fontSize=16;" vertex="1" parent="1">
          <mxGeometry x="613" y="32" width="232" height="56.75" as="geometry" />
        </mxCell>
        <mxCell id="kiffX70MgYj1E5UU6OqD-4" value="" style="shape=tableRow;horizontal=0;startSize=0;swimlaneHead=0;swimlaneBody=0;strokeColor=inherit;top=0;left=0;bottom=0;right=0;collapsible=0;dropTarget=0;fillColor=none;points=[[0,0.5],[1,0.5]];portConstraint=eastwest;fontSize=16;" vertex="1" parent="kiffX70MgYj1E5UU6OqD-3">
          <mxGeometry width="232" height="28" as="geometry" />
        </mxCell>
        <mxCell id="kiffX70MgYj1E5UU6OqD-5" value="" style="shape=partialRectangle;html=1;whiteSpace=wrap;connectable=0;strokeColor=inherit;overflow=hidden;fillColor=none;top=0;left=0;bottom=0;right=0;pointerEvents=1;fontSize=16;" vertex="1" parent="kiffX70MgYj1E5UU6OqD-4">
          <mxGeometry width="77" height="28" as="geometry">
            <mxRectangle width="77" height="28" as="alternateBounds" />
          </mxGeometry>
        </mxCell>
        <mxCell id="kiffX70MgYj1E5UU6OqD-6" value="" style="shape=partialRectangle;html=1;whiteSpace=wrap;connectable=0;strokeColor=inherit;overflow=hidden;fillColor=none;top=0;left=0;bottom=0;right=0;pointerEvents=1;fontSize=16;" vertex="1" parent="kiffX70MgYj1E5UU6OqD-4">
          <mxGeometry x="77" width="78" height="28" as="geometry">
            <mxRectangle width="78" height="28" as="alternateBounds" />
          </mxGeometry>
        </mxCell>
        <mxCell id="kiffX70MgYj1E5UU6OqD-7" value="" style="shape=partialRectangle;html=1;whiteSpace=wrap;connectable=0;strokeColor=inherit;overflow=hidden;fillColor=none;top=0;left=0;bottom=0;right=0;pointerEvents=1;fontSize=16;" vertex="1" parent="kiffX70MgYj1E5UU6OqD-4">
          <mxGeometry x="155" width="77" height="28" as="geometry">
            <mxRectangle width="77" height="28" as="alternateBounds" />
          </mxGeometry>
        </mxCell>
        <mxCell id="kiffX70MgYj1E5UU6OqD-8" value="" style="shape=tableRow;horizontal=0;startSize=0;swimlaneHead=0;swimlaneBody=0;strokeColor=inherit;top=0;left=0;bottom=0;right=0;collapsible=0;dropTarget=0;fillColor=none;points=[[0,0.5],[1,0.5]];portConstraint=eastwest;fontSize=16;" vertex="1" parent="kiffX70MgYj1E5UU6OqD-3">
          <mxGeometry y="28" width="232" height="24" as="geometry" />
        </mxCell>
        <mxCell id="kiffX70MgYj1E5UU6OqD-9" value="" style="shape=partialRectangle;html=1;whiteSpace=wrap;connectable=0;strokeColor=inherit;overflow=hidden;fillColor=none;top=0;left=0;bottom=0;right=0;pointerEvents=1;fontSize=16;" vertex="1" parent="kiffX70MgYj1E5UU6OqD-8">
          <mxGeometry width="77" height="24" as="geometry">
            <mxRectangle width="77" height="24" as="alternateBounds" />
          </mxGeometry>
        </mxCell>
        <mxCell id="kiffX70MgYj1E5UU6OqD-10" value="" style="shape=partialRectangle;html=1;whiteSpace=wrap;connectable=0;strokeColor=inherit;overflow=hidden;fillColor=none;top=0;left=0;bottom=0;right=0;pointerEvents=1;fontSize=16;" vertex="1" parent="kiffX70MgYj1E5UU6OqD-8">
          <mxGeometry x="77" width="78" height="24" as="geometry">
            <mxRectangle width="78" height="24" as="alternateBounds" />
          </mxGeometry>
        </mxCell>
        <mxCell id="kiffX70MgYj1E5UU6OqD-11" value="" style="shape=partialRectangle;html=1;whiteSpace=wrap;connectable=0;strokeColor=inherit;overflow=hidden;fillColor=none;top=0;left=0;bottom=0;right=0;pointerEvents=1;fontSize=16;" vertex="1" parent="kiffX70MgYj1E5UU6OqD-8">
          <mxGeometry x="155" width="77" height="24" as="geometry">
            <mxRectangle width="77" height="24" as="alternateBounds" />
          </mxGeometry>
        </mxCell>
        <mxCell id="kiffX70MgYj1E5UU6OqD-12" value="" style="shape=tableRow;horizontal=0;startSize=0;swimlaneHead=0;swimlaneBody=0;strokeColor=inherit;top=0;left=0;bottom=0;right=0;collapsible=0;dropTarget=0;fillColor=none;points=[[0,0.5],[1,0.5]];portConstraint=eastwest;fontSize=16;" vertex="1" parent="kiffX70MgYj1E5UU6OqD-3">
          <mxGeometry y="52" width="232" height="5" as="geometry" />
        </mxCell>
        <mxCell id="kiffX70MgYj1E5UU6OqD-13" value="" style="shape=partialRectangle;html=1;whiteSpace=wrap;connectable=0;strokeColor=inherit;overflow=hidden;fillColor=none;top=0;left=0;bottom=0;right=0;pointerEvents=1;fontSize=16;" vertex="1" parent="kiffX70MgYj1E5UU6OqD-12">
          <mxGeometry width="77" height="5" as="geometry">
            <mxRectangle width="77" height="5" as="alternateBounds" />
          </mxGeometry>
        </mxCell>
        <mxCell id="kiffX70MgYj1E5UU6OqD-14" value="" style="shape=partialRectangle;html=1;whiteSpace=wrap;connectable=0;strokeColor=inherit;overflow=hidden;fillColor=none;top=0;left=0;bottom=0;right=0;pointerEvents=1;fontSize=16;" vertex="1" parent="kiffX70MgYj1E5UU6OqD-12">
          <mxGeometry x="77" width="78" height="5" as="geometry">
            <mxRectangle width="78" height="5" as="alternateBounds" />
          </mxGeometry>
        </mxCell>
        <mxCell id="kiffX70MgYj1E5UU6OqD-15" value="" style="shape=partialRectangle;html=1;whiteSpace=wrap;connectable=0;strokeColor=inherit;overflow=hidden;fillColor=none;top=0;left=0;bottom=0;right=0;pointerEvents=1;fontSize=16;" vertex="1" parent="kiffX70MgYj1E5UU6OqD-12">
          <mxGeometry x="155" width="77" height="5" as="geometry">
            <mxRectangle width="77" height="5" as="alternateBounds" />
          </mxGeometry>
        </mxCell>
        <mxCell id="kiffX70MgYj1E5UU6OqD-16" value="" style="shape=tableRow;horizontal=0;startSize=0;swimlaneHead=0;swimlaneBody=0;strokeColor=inherit;top=0;left=0;bottom=0;right=0;collapsible=0;dropTarget=0;fillColor=none;points=[[0,0.5],[1,0.5]];portConstraint=eastwest;fontSize=16;" vertex="1" parent="1">
          <mxGeometry x="502" y="304" width="232" height="25" as="geometry" />
        </mxCell>
        <mxCell id="kiffX70MgYj1E5UU6OqD-17" value="" style="shape=partialRectangle;html=1;whiteSpace=wrap;connectable=0;strokeColor=inherit;overflow=hidden;fillColor=none;top=0;left=0;bottom=0;right=0;pointerEvents=1;fontSize=16;" vertex="1" parent="kiffX70MgYj1E5UU6OqD-16">
          <mxGeometry width="77" height="25" as="geometry">
            <mxRectangle width="77" height="25" as="alternateBounds" />
          </mxGeometry>
        </mxCell>
        <mxCell id="kiffX70MgYj1E5UU6OqD-19" value="" style="shape=partialRectangle;html=1;whiteSpace=wrap;connectable=0;strokeColor=inherit;overflow=hidden;fillColor=none;top=0;left=0;bottom=0;right=0;pointerEvents=1;fontSize=16;" vertex="1" parent="kiffX70MgYj1E5UU6OqD-16">
          <mxGeometry x="155" width="77" height="25" as="geometry">
            <mxRectangle width="77" height="25" as="alternateBounds" />
          </mxGeometry>
        </mxCell>
        <mxCell id="kiffX70MgYj1E5UU6OqD-20" value="" style="shape=table;startSize=0;container=1;collapsible=0;childLayout=tableLayout;fontSize=16;" vertex="1" parent="1">
          <mxGeometry x="613" y="370" width="232" height="59" as="geometry" />
        </mxCell>
        <mxCell id="kiffX70MgYj1E5UU6OqD-21" value="" style="shape=tableRow;horizontal=0;startSize=0;swimlaneHead=0;swimlaneBody=0;strokeColor=inherit;top=0;left=0;bottom=0;right=0;collapsible=0;dropTarget=0;fillColor=none;points=[[0,0.5],[1,0.5]];portConstraint=eastwest;fontSize=16;" vertex="1" parent="kiffX70MgYj1E5UU6OqD-20">
          <mxGeometry width="232" height="29" as="geometry" />
        </mxCell>
        <mxCell id="kiffX70MgYj1E5UU6OqD-22" value="" style="shape=partialRectangle;html=1;whiteSpace=wrap;connectable=0;strokeColor=inherit;overflow=hidden;fillColor=none;top=0;left=0;bottom=0;right=0;pointerEvents=1;fontSize=16;" vertex="1" parent="kiffX70MgYj1E5UU6OqD-21">
          <mxGeometry width="90" height="29" as="geometry">
            <mxRectangle width="90" height="29" as="alternateBounds" />
          </mxGeometry>
        </mxCell>
        <mxCell id="kiffX70MgYj1E5UU6OqD-23" value="" style="shape=partialRectangle;html=1;whiteSpace=wrap;connectable=0;strokeColor=inherit;overflow=hidden;fillColor=none;top=0;left=0;bottom=0;right=0;pointerEvents=1;fontSize=16;" vertex="1" parent="kiffX70MgYj1E5UU6OqD-21">
          <mxGeometry x="90" width="65" height="29" as="geometry">
            <mxRectangle width="65" height="29" as="alternateBounds" />
          </mxGeometry>
        </mxCell>
        <mxCell id="kiffX70MgYj1E5UU6OqD-24" value="" style="shape=partialRectangle;html=1;whiteSpace=wrap;connectable=0;strokeColor=inherit;overflow=hidden;fillColor=none;top=0;left=0;bottom=0;right=0;pointerEvents=1;fontSize=16;" vertex="1" parent="kiffX70MgYj1E5UU6OqD-21">
          <mxGeometry x="155" width="77" height="29" as="geometry">
            <mxRectangle width="77" height="29" as="alternateBounds" />
          </mxGeometry>
        </mxCell>
        <mxCell id="kiffX70MgYj1E5UU6OqD-25" value="" style="shape=tableRow;horizontal=0;startSize=0;swimlaneHead=0;swimlaneBody=0;strokeColor=inherit;top=0;left=0;bottom=0;right=0;collapsible=0;dropTarget=0;fillColor=none;points=[[0,0.5],[1,0.5]];portConstraint=eastwest;fontSize=16;" vertex="1" parent="kiffX70MgYj1E5UU6OqD-20">
          <mxGeometry y="29" width="232" height="25" as="geometry" />
        </mxCell>
        <mxCell id="kiffX70MgYj1E5UU6OqD-26" value="" style="shape=partialRectangle;html=1;whiteSpace=wrap;connectable=0;strokeColor=inherit;overflow=hidden;fillColor=none;top=0;left=0;bottom=0;right=0;pointerEvents=1;fontSize=16;" vertex="1" parent="kiffX70MgYj1E5UU6OqD-25">
          <mxGeometry width="90" height="25" as="geometry">
            <mxRectangle width="90" height="25" as="alternateBounds" />
          </mxGeometry>
        </mxCell>
        <mxCell id="kiffX70MgYj1E5UU6OqD-27" value="" style="shape=partialRectangle;html=1;whiteSpace=wrap;connectable=0;strokeColor=inherit;overflow=hidden;fillColor=none;top=0;left=0;bottom=0;right=0;pointerEvents=1;fontSize=16;" vertex="1" parent="kiffX70MgYj1E5UU6OqD-25">
          <mxGeometry x="90" width="65" height="25" as="geometry">
            <mxRectangle width="65" height="25" as="alternateBounds" />
          </mxGeometry>
        </mxCell>
        <mxCell id="kiffX70MgYj1E5UU6OqD-28" value="" style="shape=partialRectangle;html=1;whiteSpace=wrap;connectable=0;strokeColor=inherit;overflow=hidden;fillColor=none;top=0;left=0;bottom=0;right=0;pointerEvents=1;fontSize=16;" vertex="1" parent="kiffX70MgYj1E5UU6OqD-25">
          <mxGeometry x="155" width="77" height="25" as="geometry">
            <mxRectangle width="77" height="25" as="alternateBounds" />
          </mxGeometry>
        </mxCell>
        <mxCell id="kiffX70MgYj1E5UU6OqD-29" value="" style="shape=tableRow;horizontal=0;startSize=0;swimlaneHead=0;swimlaneBody=0;strokeColor=inherit;top=0;left=0;bottom=0;right=0;collapsible=0;dropTarget=0;fillColor=none;points=[[0,0.5],[1,0.5]];portConstraint=eastwest;fontSize=16;" vertex="1" parent="kiffX70MgYj1E5UU6OqD-20">
          <mxGeometry y="54" width="232" height="5" as="geometry" />
        </mxCell>
        <mxCell id="kiffX70MgYj1E5UU6OqD-30" value="" style="shape=partialRectangle;html=1;whiteSpace=wrap;connectable=0;strokeColor=inherit;overflow=hidden;fillColor=none;top=0;left=0;bottom=0;right=0;pointerEvents=1;fontSize=16;" vertex="1" parent="kiffX70MgYj1E5UU6OqD-29">
          <mxGeometry width="90" height="5" as="geometry">
            <mxRectangle width="90" height="5" as="alternateBounds" />
          </mxGeometry>
        </mxCell>
        <mxCell id="kiffX70MgYj1E5UU6OqD-31" value="" style="shape=partialRectangle;html=1;whiteSpace=wrap;connectable=0;strokeColor=inherit;overflow=hidden;fillColor=none;top=0;left=0;bottom=0;right=0;pointerEvents=1;fontSize=16;" vertex="1" parent="kiffX70MgYj1E5UU6OqD-29">
          <mxGeometry x="90" width="65" height="5" as="geometry">
            <mxRectangle width="65" height="5" as="alternateBounds" />
          </mxGeometry>
        </mxCell>
        <mxCell id="kiffX70MgYj1E5UU6OqD-32" value="" style="shape=partialRectangle;html=1;whiteSpace=wrap;connectable=0;strokeColor=inherit;overflow=hidden;fillColor=none;top=0;left=0;bottom=0;right=0;pointerEvents=1;fontSize=16;" vertex="1" parent="kiffX70MgYj1E5UU6OqD-29">
          <mxGeometry x="155" width="77" height="5" as="geometry">
            <mxRectangle width="77" height="5" as="alternateBounds" />
          </mxGeometry>
        </mxCell>
        <mxCell id="kiffX70MgYj1E5UU6OqD-33" value="We add a DB trigger which updates the trigger execution table with a new record (just a dummy)" style="shape=callout;whiteSpace=wrap;html=1;perimeter=calloutPerimeter;" vertex="1" parent="1">
          <mxGeometry x="368" y="18" width="120" height="152" as="geometry" />
        </mxCell>
        <mxCell id="kiffX70MgYj1E5UU6OqD-34" value="Actual View" style="text;html=1;align=center;verticalAlign=middle;whiteSpace=wrap;rounded=0;" vertex="1" parent="1">
          <mxGeometry x="695" y="320" width="60" height="32" as="geometry" />
        </mxCell>
        <mxCell id="kiffX70MgYj1E5UU6OqD-35" value="" style="shape=table;startSize=0;container=1;collapsible=0;childLayout=tableLayout;fontSize=16;" vertex="1" parent="1">
          <mxGeometry x="348" y="217" width="232" height="137" as="geometry" />
        </mxCell>
        <mxCell id="kiffX70MgYj1E5UU6OqD-36" value="" style="shape=tableRow;horizontal=0;startSize=0;swimlaneHead=0;swimlaneBody=0;strokeColor=inherit;top=0;left=0;bottom=0;right=0;collapsible=0;dropTarget=0;fillColor=none;points=[[0,0.5],[1,0.5]];portConstraint=eastwest;fontSize=16;" vertex="1" parent="kiffX70MgYj1E5UU6OqD-35">
          <mxGeometry width="232" height="67" as="geometry" />
        </mxCell>
        <mxCell id="kiffX70MgYj1E5UU6OqD-37" value="View updated" style="shape=partialRectangle;html=1;whiteSpace=wrap;connectable=0;strokeColor=inherit;overflow=hidden;fillColor=none;top=0;left=0;bottom=0;right=0;pointerEvents=1;fontSize=16;" vertex="1" parent="kiffX70MgYj1E5UU6OqD-36">
          <mxGeometry width="77" height="67" as="geometry">
            <mxRectangle width="77" height="67" as="alternateBounds" />
          </mxGeometry>
        </mxCell>
        <mxCell id="kiffX70MgYj1E5UU6OqD-38" value="" style="shape=partialRectangle;html=1;whiteSpace=wrap;connectable=0;strokeColor=inherit;overflow=hidden;fillColor=none;top=0;left=0;bottom=0;right=0;pointerEvents=1;fontSize=16;" vertex="1" parent="kiffX70MgYj1E5UU6OqD-36">
          <mxGeometry x="77" width="78" height="67" as="geometry">
            <mxRectangle width="78" height="67" as="alternateBounds" />
          </mxGeometry>
        </mxCell>
        <mxCell id="kiffX70MgYj1E5UU6OqD-39" value="" style="shape=partialRectangle;html=1;whiteSpace=wrap;connectable=0;strokeColor=inherit;overflow=hidden;fillColor=none;top=0;left=0;bottom=0;right=0;pointerEvents=1;fontSize=16;" vertex="1" parent="kiffX70MgYj1E5UU6OqD-36">
          <mxGeometry x="155" width="77" height="67" as="geometry">
            <mxRectangle width="77" height="67" as="alternateBounds" />
          </mxGeometry>
        </mxCell>
        <mxCell id="kiffX70MgYj1E5UU6OqD-40" value="" style="shape=tableRow;horizontal=0;startSize=0;swimlaneHead=0;swimlaneBody=0;strokeColor=inherit;top=0;left=0;bottom=0;right=0;collapsible=0;dropTarget=0;fillColor=none;points=[[0,0.5],[1,0.5]];portConstraint=eastwest;fontSize=16;" vertex="1" parent="kiffX70MgYj1E5UU6OqD-35">
          <mxGeometry y="67" width="232" height="58" as="geometry" />
        </mxCell>
        <mxCell id="kiffX70MgYj1E5UU6OqD-41" value="View Updated" style="shape=partialRectangle;html=1;whiteSpace=wrap;connectable=0;strokeColor=inherit;overflow=hidden;fillColor=none;top=0;left=0;bottom=0;right=0;pointerEvents=1;fontSize=16;" vertex="1" parent="kiffX70MgYj1E5UU6OqD-40">
          <mxGeometry width="77" height="58" as="geometry">
            <mxRectangle width="77" height="58" as="alternateBounds" />
          </mxGeometry>
        </mxCell>
        <mxCell id="kiffX70MgYj1E5UU6OqD-42" value="" style="shape=partialRectangle;html=1;whiteSpace=wrap;connectable=0;strokeColor=inherit;overflow=hidden;fillColor=none;top=0;left=0;bottom=0;right=0;pointerEvents=1;fontSize=16;" vertex="1" parent="kiffX70MgYj1E5UU6OqD-40">
          <mxGeometry x="77" width="78" height="58" as="geometry">
            <mxRectangle width="78" height="58" as="alternateBounds" />
          </mxGeometry>
        </mxCell>
        <mxCell id="kiffX70MgYj1E5UU6OqD-43" value="" style="shape=partialRectangle;html=1;whiteSpace=wrap;connectable=0;strokeColor=inherit;overflow=hidden;fillColor=none;top=0;left=0;bottom=0;right=0;pointerEvents=1;fontSize=16;" vertex="1" parent="kiffX70MgYj1E5UU6OqD-40">
          <mxGeometry x="155" width="77" height="58" as="geometry">
            <mxRectangle width="77" height="58" as="alternateBounds" />
          </mxGeometry>
        </mxCell>
        <mxCell id="kiffX70MgYj1E5UU6OqD-44" value="" style="shape=tableRow;horizontal=0;startSize=0;swimlaneHead=0;swimlaneBody=0;strokeColor=inherit;top=0;left=0;bottom=0;right=0;collapsible=0;dropTarget=0;fillColor=none;points=[[0,0.5],[1,0.5]];portConstraint=eastwest;fontSize=16;" vertex="1" parent="kiffX70MgYj1E5UU6OqD-35">
          <mxGeometry y="125" width="232" height="12" as="geometry" />
        </mxCell>
        <mxCell id="kiffX70MgYj1E5UU6OqD-45" value="" style="shape=partialRectangle;html=1;whiteSpace=wrap;connectable=0;strokeColor=inherit;overflow=hidden;fillColor=none;top=0;left=0;bottom=0;right=0;pointerEvents=1;fontSize=16;" vertex="1" parent="kiffX70MgYj1E5UU6OqD-44">
          <mxGeometry width="77" height="12" as="geometry">
            <mxRectangle width="77" height="12" as="alternateBounds" />
          </mxGeometry>
        </mxCell>
        <mxCell id="kiffX70MgYj1E5UU6OqD-46" value="" style="shape=partialRectangle;html=1;whiteSpace=wrap;connectable=0;strokeColor=inherit;overflow=hidden;fillColor=none;top=0;left=0;bottom=0;right=0;pointerEvents=1;fontSize=16;" vertex="1" parent="kiffX70MgYj1E5UU6OqD-44">
          <mxGeometry x="77" width="78" height="12" as="geometry">
            <mxRectangle width="78" height="12" as="alternateBounds" />
          </mxGeometry>
        </mxCell>
        <mxCell id="kiffX70MgYj1E5UU6OqD-47" value="" style="shape=partialRectangle;html=1;whiteSpace=wrap;connectable=0;strokeColor=inherit;overflow=hidden;fillColor=none;top=0;left=0;bottom=0;right=0;pointerEvents=1;fontSize=16;" vertex="1" parent="kiffX70MgYj1E5UU6OqD-44">
          <mxGeometry x="155" width="77" height="12" as="geometry">
            <mxRectangle width="77" height="12" as="alternateBounds" />
          </mxGeometry>
        </mxCell>
        <mxCell id="kiffX70MgYj1E5UU6OqD-48" value="Original Table" style="text;html=1;align=center;verticalAlign=middle;whiteSpace=wrap;rounded=0;" vertex="1" parent="1">
          <mxGeometry x="701.5" y="-8" width="60" height="32" as="geometry" />
        </mxCell>
        <mxCell id="kiffX70MgYj1E5UU6OqD-49" value="View meta data or events about view update" style="text;html=1;align=center;verticalAlign=middle;whiteSpace=wrap;rounded=0;" vertex="1" parent="1">
          <mxGeometry x="356" y="175" width="142" height="32" as="geometry" />
        </mxCell>
        <mxCell id="kiffX70MgYj1E5UU6OqD-50" value="" style="endArrow=classic;html=1;rounded=0;fontSize=12;startSize=8;endSize=8;curved=1;exitX=0.539;exitY=1;exitDx=0;exitDy=0;exitPerimeter=0;" edge="1" parent="1" source="kiffX70MgYj1E5UU6OqD-12" target="kiffX70MgYj1E5UU6OqD-2">
          <mxGeometry width="50" height="50" relative="1" as="geometry">
            <mxPoint x="552" y="110" as="sourcePoint" />
            <mxPoint x="593" y="56" as="targetPoint" />
          </mxGeometry>
        </mxCell>
        <mxCell id="kiffX70MgYj1E5UU6OqD-52" value="Text" style="edgeLabel;html=1;align=center;verticalAlign=middle;resizable=0;points=[];fontSize=12;" vertex="1" connectable="0" parent="kiffX70MgYj1E5UU6OqD-50">
          <mxGeometry x="0.227" relative="1" as="geometry">
            <mxPoint as="offset" />
          </mxGeometry>
        </mxCell>
        <mxCell id="kiffX70MgYj1E5UU6OqD-53" value="UI" style="ellipse;whiteSpace=wrap;html=1;aspect=fixed;" vertex="1" parent="1">
          <mxGeometry x="-237" y="279" width="80" height="80" as="geometry" />
        </mxCell>
        <mxCell id="kiffX70MgYj1E5UU6OqD-54" value="Microservice" style="ellipse;whiteSpace=wrap;html=1;aspect=fixed;" vertex="1" parent="1">
          <mxGeometry x="-215" y="107" width="80" height="80" as="geometry" />
        </mxCell>
        <mxCell id="kiffX70MgYj1E5UU6OqD-55" value="" style="endArrow=classic;html=1;rounded=0;fontSize=12;startSize=8;endSize=8;curved=1;entryX=0.5;entryY=1;entryDx=0;entryDy=0;" edge="1" parent="1" source="kiffX70MgYj1E5UU6OqD-53" target="kiffX70MgYj1E5UU6OqD-54">
          <mxGeometry width="50" height="50" relative="1" as="geometry">
            <mxPoint x="-366" y="213" as="sourcePoint" />
            <mxPoint x="-216" y="151" as="targetPoint" />
          </mxGeometry>
        </mxCell>
        <mxCell id="kiffX70MgYj1E5UU6OqD-56" value="Copy or summary of information in view" style="ellipse;shape=cloud;whiteSpace=wrap;html=1;" vertex="1" parent="1">
          <mxGeometry x="-261" y="-46" width="150" height="81" as="geometry" />
        </mxCell>
        <mxCell id="kiffX70MgYj1E5UU6OqD-57" value="" style="endArrow=classic;startArrow=classic;html=1;rounded=0;fontSize=12;startSize=8;endSize=8;curved=1;" edge="1" parent="1">
          <mxGeometry width="50" height="50" relative="1" as="geometry">
            <mxPoint x="-180" y="101" as="sourcePoint" />
            <mxPoint x="-180" y="36" as="targetPoint" />
          </mxGeometry>
        </mxCell>
        <mxCell id="kiffX70MgYj1E5UU6OqD-58" value="has the number of updates to the view increase?" style="rhombus;whiteSpace=wrap;html=1;" vertex="1" parent="1">
          <mxGeometry x="-17" y="187" width="136" height="116" as="geometry" />
        </mxCell>
        <mxCell id="kiffX70MgYj1E5UU6OqD-59" value="" style="endArrow=classic;html=1;rounded=0;fontSize=12;startSize=8;endSize=8;curved=1;entryX=0;entryY=0.5;entryDx=0;entryDy=0;" edge="1" parent="1" target="kiffX70MgYj1E5UU6OqD-58">
          <mxGeometry width="50" height="50" relative="1" as="geometry">
            <mxPoint x="-133" y="154" as="sourcePoint" />
            <mxPoint x="-83" y="104" as="targetPoint" />
          </mxGeometry>
        </mxCell>
        <mxCell id="kiffX70MgYj1E5UU6OqD-61" value="Polls the view meta data table" style="text;html=1;align=center;verticalAlign=middle;whiteSpace=wrap;rounded=0;" vertex="1" parent="1">
          <mxGeometry x="-74" y="115" width="60" height="30" as="geometry" />
        </mxCell>
        <mxCell id="kiffX70MgYj1E5UU6OqD-63" value="" style="endArrow=classic;startArrow=classic;html=1;rounded=0;fontSize=12;startSize=8;endSize=8;curved=1;" edge="1" parent="1">
          <mxGeometry width="50" height="50" relative="1" as="geometry">
            <mxPoint x="712" y="509" as="sourcePoint" />
            <mxPoint x="712" y="428" as="targetPoint" />
          </mxGeometry>
        </mxCell>
        <mxCell id="kiffX70MgYj1E5UU6OqD-64" value="" style="endArrow=classic;startArrow=classic;html=1;rounded=0;fontSize=12;startSize=8;endSize=8;curved=1;" edge="1" parent="1">
          <mxGeometry width="50" height="50" relative="1" as="geometry">
            <mxPoint x="176" y="508" as="sourcePoint" />
            <mxPoint x="704" y="508" as="targetPoint" />
          </mxGeometry>
        </mxCell>
        <mxCell id="kiffX70MgYj1E5UU6OqD-65" value="Update the local summary of the view" style="text;html=1;align=center;verticalAlign=middle;whiteSpace=wrap;rounded=0;" vertex="1" parent="1">
          <mxGeometry x="183" y="318" width="87" height="66" as="geometry" />
        </mxCell>
        <mxCell id="kiffX70MgYj1E5UU6OqD-66" value="Is always returned the local summary of the view" style="text;html=1;align=center;verticalAlign=middle;whiteSpace=wrap;rounded=0;" vertex="1" parent="1">
          <mxGeometry x="-319" y="176" width="121" height="79" as="geometry" />
        </mxCell>
        <mxCell id="kiffX70MgYj1E5UU6OqD-67" value="" style="endArrow=classic;startArrow=classic;html=1;rounded=0;fontSize=12;startSize=8;endSize=8;curved=1;" edge="1" parent="1">
          <mxGeometry width="50" height="50" relative="1" as="geometry">
            <mxPoint x="171" y="497" as="sourcePoint" />
            <mxPoint x="164" y="-15" as="targetPoint" />
          </mxGeometry>
        </mxCell>
        <mxCell id="kiffX70MgYj1E5UU6OqD-68" value="" style="endArrow=classic;startArrow=classic;html=1;rounded=0;fontSize=12;startSize=8;endSize=8;curved=1;" edge="1" parent="1">
          <mxGeometry width="50" height="50" relative="1" as="geometry">
            <mxPoint x="-121" y="-11" as="sourcePoint" />
            <mxPoint x="161" y="-16" as="targetPoint" />
          </mxGeometry>
        </mxCell>
        <mxCell id="kiffX70MgYj1E5UU6OqD-70" value="" style="endArrow=classic;startArrow=classic;html=1;rounded=0;fontSize=12;startSize=8;endSize=8;curved=1;" edge="1" parent="1">
          <mxGeometry width="50" height="50" relative="1" as="geometry">
            <mxPoint x="52" y="382" as="sourcePoint" />
            <mxPoint x="52" y="300" as="targetPoint" />
          </mxGeometry>
        </mxCell>
        <mxCell id="kiffX70MgYj1E5UU6OqD-71" value="DO Nothing" style="ellipse;whiteSpace=wrap;html=1;aspect=fixed;" vertex="1" parent="1">
          <mxGeometry x="16" y="387" width="80" height="80" as="geometry" />
        </mxCell>
        <mxCell id="kiffX70MgYj1E5UU6OqD-72" value="" style="endArrow=classic;startArrow=classic;html=1;rounded=0;fontSize=12;startSize=8;endSize=8;curved=1;" edge="1" parent="1">
          <mxGeometry width="50" height="50" relative="1" as="geometry">
            <mxPoint x="119" y="244.29" as="sourcePoint" />
            <mxPoint x="164" y="244.29" as="targetPoint" />
          </mxGeometry>
        </mxCell>
        <mxCell id="kiffX70MgYj1E5UU6OqD-73" value="YES" style="text;html=1;align=center;verticalAlign=middle;whiteSpace=wrap;rounded=0;" vertex="1" parent="1">
          <mxGeometry x="111" y="210" width="60" height="30" as="geometry" />
        </mxCell>
        <mxCell id="kiffX70MgYj1E5UU6OqD-74" value="NO" style="text;html=1;align=center;verticalAlign=middle;whiteSpace=wrap;rounded=0;" vertex="1" parent="1">
          <mxGeometry x="57" y="329" width="60" height="30" as="geometry" />
        </mxCell>
      </root>
    </mxGraphModel>
  </diagram>
</mxfile>
